<svg width="69" height="64" viewBox="0 0 69 64" fill="none" xmlns="http://www.w3.org/2000/svg">
<g filter="url(#filter0_d_375_797)">
<rect x="4" width="61" height="56" fill="#F9F7F1"/>
</g>
<path d="M33.8607 17.367C36.6854 17.367 39.3471 18.6192 41.2977 20.5767V20.5825C41.2977 19.6425 41.9301 18.9314 42.8043 18.9314H43.0263C44.4057 18.9314 44.682 20.2322 44.682 20.6426L44.6878 35.2518C44.5918 36.2092 45.6764 36.7041 46.2788 36.089C48.6202 33.6805 51.4264 23.6951 44.8208 17.9139C38.6603 12.5177 30.3919 13.4091 25.9959 16.4385C21.3235 19.6667 18.3369 26.7973 21.2379 33.499C24.406 40.8053 33.4629 42.9848 38.8534 40.8111C41.5821 39.7092 42.8401 43.393 40.0038 44.599C35.7292 46.4224 23.8163 46.2362 18.2525 36.6012C14.4935 30.0927 14.6924 18.6435 24.6662 12.7119C32.2893 8.17131 42.3475 9.42931 48.4109 15.7598C54.7472 22.3839 54.3806 34.7778 48.1947 39.5959C45.3931 41.787 41.2329 39.656 41.263 36.4636L41.2318 35.423C39.2812 37.3551 36.6854 38.4882 33.8607 38.4882C28.2725 38.4882 23.3527 33.5672 23.3527 27.9848C23.3527 22.3423 28.2725 17.3693 33.8607 17.3693V17.367ZM40.8895 27.5813C40.6779 23.4916 37.6428 21.0288 33.9751 21.0288H33.8364C29.6091 21.0288 27.2608 24.3588 27.2608 28.134C27.2608 32.367 30.0971 35.0402 33.819 35.0402C37.9735 35.0402 40.701 32.0005 40.8999 28.4045L40.8895 27.5813Z" fill="#192533"/>
<defs>
<filter id="filter0_d_375_797" x="0" y="0" width="69" height="64" filterUnits="userSpaceOnUse" color-interpolation-filters="sRGB">
<feFlood flood-opacity="0" result="BackgroundImageFix"/>
<feColorMatrix in="SourceAlpha" type="matrix" values="0 0 0 0 0 0 0 0 0 0 0 0 0 0 0 0 0 0 127 0" result="hardAlpha"/>
<feOffset dy="4"/>
<feGaussianBlur stdDeviation="2"/>
<feColorMatrix type="matrix" values="0 0 0 0 0 0 0 0 0 0 0 0 0 0 0 0 0 0 0.25 0"/>
<feBlend mode="normal" in2="BackgroundImageFix" result="effect1_dropShadow_375_797"/>
<feBlend mode="normal" in="SourceGraphic" in2="effect1_dropShadow_375_797" result="shape"/>
</filter>
</defs>
</svg>
